<svg width="960" height="144" viewBox="0 0 960 144" fill="none" xmlns="http://www.w3.org/2000/svg">
<mask id="mask0_0_359" style="mask-type:alpha" maskUnits="userSpaceOnUse" x="0" y="0" width="960" height="144">
<rect width="960" height="144" fill="black"/>
</mask>
<g mask="url(#mask0_0_359)">
<path d="M0 0H133.313H216V144H1e-05L0 0Z" fill="#2E2E2E"/>
<path d="M82.692 108.134V108.242L82.764 114.866C82.764 114.974 82.764 115.064 82.764 115.262C82.764 115.964 82.746 116.162 82.692 116.684H84.15C84.096 116.198 84.06 115.622 84.06 114.848L83.934 106.082H86.346C86.436 106.082 86.544 106.082 86.616 106.082C87.354 106.082 87.732 106.1 88.11 106.136V104.822C87.534 104.912 87.318 104.93 86.31 104.93H83.934L83.898 103.13V102.698C83.898 102.392 83.916 102.104 83.97 101.708H82.53C82.602 102.23 82.602 102.23 82.62 103.166L82.638 104.93L76.086 104.966C75.024 104.966 74.7 104.948 74.052 104.84V106.19C74.664 106.118 74.916 106.118 76.05 106.118L81.954 106.082C81.36 107.108 80.37 108.35 79.362 109.358C77.472 111.248 75.438 112.688 73.26 113.66C73.728 114.038 73.872 114.218 74.16 114.74C75.618 113.912 76.32 113.48 77.13 112.886C78.876 111.626 80.46 110.15 81.396 108.908C82.242 107.792 82.404 107.558 82.746 106.892C82.71 107.666 82.692 107.936 82.692 108.062V108.134ZM106.218 115.028C104.166 112.85 102.582 111.428 100.224 109.628C101.34 108.242 102.186 106.82 103.194 104.588C103.392 104.138 103.518 103.922 103.698 103.706L102.942 102.932C102.636 103.04 102.42 103.058 101.79 103.076L95.364 103.148C95.112 103.148 94.95 103.148 94.896 103.148C94.284 103.148 93.96 103.13 93.474 103.058L93.51 104.516C94.032 104.426 94.554 104.39 95.364 104.372L101.376 104.282C101.592 104.282 101.646 104.282 101.808 104.264C101.79 104.318 101.79 104.336 101.754 104.39C101.718 104.48 101.7 104.498 101.664 104.606C100.35 107.756 98.118 110.6 95.238 112.724C93.852 113.75 92.97 114.236 91.584 114.794C92.034 115.244 92.178 115.442 92.466 115.982C93.798 115.316 94.752 114.722 95.994 113.822C97.29 112.868 98.172 112.04 99.432 110.6C101.736 112.382 103.77 114.344 105.192 116.162L106.218 115.028ZM124.218 115.028C122.166 112.85 120.582 111.428 118.224 109.628C119.34 108.242 120.186 106.82 121.194 104.588C121.392 104.138 121.518 103.922 121.698 103.706L120.942 102.932C120.636 103.04 120.42 103.058 119.79 103.076L113.364 103.148C113.112 103.148 112.95 103.148 112.896 103.148C112.284 103.148 111.96 103.13 111.474 103.058L111.51 104.516C112.032 104.426 112.554 104.39 113.364 104.372L119.376 104.282C119.592 104.282 119.646 104.282 119.808 104.264C119.79 104.318 119.79 104.336 119.754 104.39C119.718 104.48 119.7 104.498 119.664 104.606C118.35 107.756 116.118 110.6 113.238 112.724C111.852 113.75 110.97 114.236 109.584 114.794C110.034 115.244 110.178 115.442 110.466 115.982C111.798 115.316 112.752 114.722 113.994 113.822C115.29 112.868 116.172 112.04 117.432 110.6C119.736 112.382 121.77 114.344 123.192 116.162L124.218 115.028ZM138.456 102.014C138.366 102.536 138.276 102.824 137.826 103.922C137.196 105.488 136.548 106.784 135.702 108.116C133.686 106.64 132.786 106.046 131.022 104.984L130.122 105.938C131.634 106.766 133.326 107.882 134.964 109.196C132.984 111.86 130.68 113.804 127.8 115.208C128.268 115.586 128.412 115.748 128.736 116.288C131.886 114.506 134.082 112.616 135.972 110.024C137.79 111.554 138.942 112.706 139.896 113.93L140.904 112.814C139.464 111.32 138.312 110.222 136.764 108.944C137.682 107.54 138.24 106.442 139.41 103.688C139.662 103.094 139.734 102.932 139.968 102.59L138.456 102.014Z" fill="white"/>
<path d="M22.5799 46V30H27.9861C29.2361 30 30.2622 30.2135 31.0643 30.6406C31.8663 31.0625 32.4601 31.6432 32.8455 32.3828C33.2309 33.1224 33.4236 33.9635 33.4236 34.9062C33.4236 35.849 33.2309 36.6849 32.8455 37.4141C32.4601 38.1432 31.8689 38.7161 31.0721 39.1328C30.2752 39.5443 29.257 39.75 28.0174 39.75H23.6424V38H27.9549C28.809 38 29.4965 37.875 30.0174 37.625C30.5434 37.375 30.9236 37.0208 31.158 36.5625C31.3976 36.099 31.5174 35.5469 31.5174 34.9062C31.5174 34.2656 31.3976 33.7057 31.158 33.2266C30.9184 32.7474 30.5356 32.3776 30.0096 32.1172C29.4835 31.8516 28.7882 31.7187 27.9236 31.7187H24.5174V46H22.5799ZM30.1111 38.8125L34.0486 46H31.7986L27.9236 38.8125H30.1111ZM36.7621 46V30H46.4184V31.7187H38.6996V37.125H45.9184V38.8437H38.6996V44.2812H46.5434V46H36.7621ZM62.8956 35H60.9581C60.8435 34.4427 60.643 33.9531 60.3565 33.5312C60.0753 33.1094 59.7315 32.7552 59.3253 32.4688C58.9242 32.1771 58.4789 31.9583 57.9893 31.8125C57.4998 31.6667 56.9893 31.5937 56.4581 31.5937C55.4893 31.5937 54.6117 31.8385 53.8253 32.3281C53.044 32.8177 52.4216 33.5391 51.9581 34.4922C51.4998 35.4453 51.2706 36.6146 51.2706 38C51.2706 39.3854 51.4998 40.5547 51.9581 41.5078C52.4216 42.4609 53.044 43.1823 53.8253 43.6719C54.6117 44.1615 55.4893 44.4062 56.4581 44.4062C56.9893 44.4062 57.4998 44.3333 57.9893 44.1875C58.4789 44.0417 58.9242 43.8255 59.3253 43.5391C59.7315 43.2474 60.0753 42.8906 60.3565 42.4687C60.643 42.0417 60.8435 41.5521 60.9581 41H62.8956C62.7498 41.8177 62.4841 42.5495 62.0987 43.1953C61.7133 43.8411 61.2341 44.3906 60.6612 44.8437C60.0883 45.2917 59.4451 45.6328 58.7315 45.8672C58.0232 46.1016 57.2654 46.2187 56.4581 46.2187C55.0935 46.2187 53.88 45.8854 52.8175 45.2188C51.755 44.5521 50.919 43.6042 50.3096 42.375C49.7003 41.1458 49.3956 39.6875 49.3956 38C49.3956 36.3125 49.7003 34.8542 50.3096 33.625C50.919 32.3958 51.755 31.4479 52.8175 30.7812C53.88 30.1146 55.0935 29.7812 56.4581 29.7812C57.2654 29.7812 58.0232 29.8984 58.7315 30.1328C59.4451 30.3672 60.0883 30.7109 60.6612 31.1641C61.2341 31.612 61.7133 32.1589 62.0987 32.8047C62.4841 33.4453 62.7498 34.1771 62.8956 35ZM79.6364 38C79.6364 39.6875 79.3318 41.1458 78.7224 42.375C78.113 43.6042 77.2771 44.5521 76.2146 45.2188C75.1521 45.8854 73.9385 46.2187 72.5739 46.2187C71.2094 46.2187 69.9958 45.8854 68.9333 45.2188C67.8708 44.5521 67.0349 43.6042 66.4255 42.375C65.8161 41.1458 65.5114 39.6875 65.5114 38C65.5114 36.3125 65.8161 34.8542 66.4255 33.625C67.0349 32.3958 67.8708 31.4479 68.9333 30.7812C69.9958 30.1146 71.2094 29.7812 72.5739 29.7812C73.9385 29.7812 75.1521 30.1146 76.2146 30.7812C77.2771 31.4479 78.113 32.3958 78.7224 33.625C79.3318 34.8542 79.6364 36.3125 79.6364 38ZM77.7614 38C77.7614 36.6146 77.5297 35.4453 77.0661 34.4922C76.6078 33.5391 75.9854 32.8177 75.1989 32.3281C74.4177 31.8385 73.5427 31.5937 72.5739 31.5937C71.6052 31.5937 70.7276 31.8385 69.9411 32.3281C69.1599 32.8177 68.5375 33.5391 68.0739 34.4922C67.6156 35.4453 67.3864 36.6146 67.3864 38C67.3864 39.3854 67.6156 40.5547 68.0739 41.5078C68.5375 42.4609 69.1599 43.1823 69.9411 43.6719C70.7276 44.1615 71.6052 44.4062 72.5739 44.4062C73.5427 44.4062 74.4177 44.1615 75.1989 43.6719C75.9854 43.1823 76.6078 42.4609 77.0661 41.5078C77.5297 40.5547 77.7614 39.3854 77.7614 38ZM83.0043 30H85.3168L90.7543 43.2812H90.9418L96.3793 30H98.6918V46H96.8793V33.8438H96.723L91.723 46H89.973L84.973 33.8438H84.8168V46H83.0043V30ZM102.687 30H104.999L110.437 43.2812H110.624L116.062 30H118.374V46H116.562V33.8438H116.405L111.405 46H109.655L104.655 33.8438H104.499V46H102.687V30ZM122.369 46V30H132.025V31.7187H124.306V37.125H131.525V38.8437H124.306V44.2812H132.15V46H122.369ZM148.315 30V46H146.44L137.721 33.4375H137.565V46H135.627V30H137.502L146.252 42.5937H146.408V30H148.315ZM157.239 46H152.302V30H157.458C159.01 30 160.338 30.3203 161.442 30.9609C162.546 31.5964 163.393 32.5104 163.981 33.7031C164.57 34.8906 164.864 36.3125 164.864 37.9687C164.864 39.6354 164.567 41.0703 163.974 42.2734C163.38 43.4714 162.515 44.3932 161.38 45.0391C160.244 45.6797 158.864 46 157.239 46ZM154.239 44.2812H157.114C158.437 44.2812 159.533 44.026 160.403 43.5156C161.273 43.0052 161.921 42.2786 162.349 41.3359C162.776 40.3932 162.989 39.2708 162.989 37.9687C162.989 36.6771 162.778 35.5651 162.356 34.6328C161.934 33.6953 161.304 32.9766 160.466 32.4766C159.627 31.9714 158.583 31.7187 157.333 31.7187H154.239V44.2812ZM168.224 46V30H177.88V31.7187H170.162V37.125H177.38V38.8437H170.162V44.2812H178.005V46H168.224ZM186.42 46H181.483V30H186.639C188.191 30 189.519 30.3203 190.623 30.9609C191.727 31.5964 192.574 32.5104 193.162 33.7031C193.751 34.8906 194.045 36.3125 194.045 37.9687C194.045 39.6354 193.748 41.0703 193.154 42.2734C192.561 43.4714 191.696 44.3932 190.561 45.0391C189.425 45.6797 188.045 46 186.42 46ZM183.42 44.2812H186.295C187.618 44.2812 188.714 44.026 189.584 43.5156C190.454 43.0052 191.102 42.2786 191.529 41.3359C191.957 40.3932 192.17 39.2708 192.17 37.9687C192.17 36.6771 191.959 35.5651 191.537 34.6328C191.115 33.6953 190.485 32.9766 189.647 32.4766C188.808 31.9714 187.764 31.7187 186.514 31.7187H183.42V44.2812ZM73.7465 62H71.809C71.6944 61.4427 71.4939 60.9531 71.2074 60.5312C70.9262 60.1094 70.5824 59.7552 70.1762 59.4688C69.7751 59.1771 69.3298 58.9583 68.8402 58.8125C68.3506 58.6667 67.8402 58.5937 67.309 58.5937C66.3402 58.5937 65.4626 58.8385 64.6762 59.3281C63.8949 59.8177 63.2725 60.5391 62.809 61.4922C62.3506 62.4453 62.1215 63.6146 62.1215 65C62.1215 66.3854 62.3506 67.5547 62.809 68.5078C63.2725 69.4609 63.8949 70.1823 64.6762 70.6719C65.4626 71.1615 66.3402 71.4062 67.309 71.4062C67.8402 71.4062 68.3506 71.3333 68.8402 71.1875C69.3298 71.0417 69.7751 70.8255 70.1762 70.5391C70.5824 70.2474 70.9262 69.8906 71.2074 69.4687C71.4939 69.0417 71.6944 68.5521 71.809 68H73.7465C73.6007 68.8177 73.335 69.5495 72.9496 70.1953C72.5642 70.8411 72.085 71.3906 71.5121 71.8437C70.9392 72.2917 70.296 72.6328 69.5824 72.8672C68.8741 73.1016 68.1163 73.2187 67.309 73.2187C65.9444 73.2187 64.7309 72.8854 63.6684 72.2188C62.6059 71.5521 61.7699 70.6042 61.1605 69.375C60.5512 68.1458 60.2465 66.6875 60.2465 65C60.2465 63.3125 60.5512 61.8542 61.1605 60.625C61.7699 59.3958 62.6059 58.4479 63.6684 57.7812C64.7309 57.1146 65.9444 56.7812 67.309 56.7812C68.1163 56.7812 68.8741 56.8984 69.5824 57.1328C70.296 57.3672 70.9392 57.7109 71.5121 58.1641C72.085 58.612 72.5642 59.1589 72.9496 59.8047C73.335 60.4453 73.6007 61.1771 73.7465 62ZM90.4873 65C90.4873 66.6875 90.1827 68.1458 89.5733 69.375C88.9639 70.6042 88.128 71.5521 87.0655 72.2188C86.003 72.8854 84.7894 73.2187 83.4248 73.2187C82.0603 73.2187 80.8467 72.8854 79.7842 72.2188C78.7217 71.5521 77.8858 70.6042 77.2764 69.375C76.667 68.1458 76.3623 66.6875 76.3623 65C76.3623 63.3125 76.667 61.8542 77.2764 60.625C77.8858 59.3958 78.7217 58.4479 79.7842 57.7812C80.8467 57.1146 82.0603 56.7812 83.4248 56.7812C84.7894 56.7812 86.003 57.1146 87.0655 57.7812C88.128 58.4479 88.9639 59.3958 89.5733 60.625C90.1827 61.8542 90.4873 63.3125 90.4873 65ZM88.6123 65C88.6123 63.6146 88.3806 62.4453 87.917 61.4922C87.4587 60.5391 86.8363 59.8177 86.0498 59.3281C85.2686 58.8385 84.3936 58.5937 83.4248 58.5937C82.4561 58.5937 81.5785 58.8385 80.792 59.3281C80.0108 59.8177 79.3884 60.5391 78.9248 61.4922C78.4665 62.4453 78.2373 63.6146 78.2373 65C78.2373 66.3854 78.4665 67.5547 78.9248 68.5078C79.3884 69.4609 80.0108 70.1823 80.792 70.6719C81.5785 71.1615 82.4561 71.4062 83.4248 71.4062C84.3936 71.4062 85.2686 71.1615 86.0498 70.6719C86.8363 70.1823 87.4587 69.4609 87.917 68.5078C88.3806 67.5547 88.6123 66.3854 88.6123 65ZM93.8552 73V57H95.7927V71.2812H103.23V73H93.8552ZM116.84 57H118.778V67.5937C118.778 68.6875 118.52 69.6641 118.004 70.5234C117.494 71.3776 116.772 72.0521 115.84 72.5469C114.908 73.0365 113.814 73.2813 112.559 73.2813C111.304 73.2813 110.21 73.0365 109.278 72.5469C108.345 72.0521 107.621 71.3776 107.106 70.5234C106.595 69.6641 106.34 68.6875 106.34 67.5937V57H108.278V67.4375C108.278 68.2187 108.45 68.9141 108.793 69.5234C109.137 70.1276 109.627 70.6042 110.262 70.9531C110.903 71.2969 111.668 71.4687 112.559 71.4687C113.45 71.4687 114.215 71.2969 114.856 70.9531C115.496 70.6042 115.986 70.1276 116.325 69.5234C116.668 68.9141 116.84 68.2187 116.84 67.4375V57ZM122.757 57H125.069L130.507 70.2812H130.694L136.132 57H138.444V73H136.632V60.8438H136.476L131.476 73H129.726L124.726 60.8438H124.569V73H122.757V57ZM155.127 57V73H153.252L144.533 60.4375H144.377V73H142.439V57H144.314L153.064 69.5937H153.22V57H155.127Z" fill="#FFCC21"/>
<path d="M80 88H136H80Z" fill="black" fill-opacity="0.01"/>
<path d="M80 88H136" stroke="white"/>
<path d="M248 0H381.313H464V144H248L248 0Z" fill="#2E2E2E"/>
<path d="M319.538 101.15C319.448 101.672 319.07 102.536 318.476 103.598C317.342 105.632 315.686 107.486 313.886 108.746C314.336 108.998 314.534 109.142 314.93 109.61C316.55 108.35 318.098 106.622 319.214 104.804L325.514 104.732C324.974 106.442 323.93 108.602 323.012 109.952C321.698 108.836 320.438 107.954 319.034 107.162L318.206 108.08C319.394 108.71 321.14 109.97 322.238 110.978C320.852 112.85 318.062 114.812 315.398 115.802C315.812 116.144 316.01 116.396 316.28 116.918C321.698 114.398 324.38 111.464 326.648 105.506L326.738 105.236L326.828 104.984C326.846 104.948 326.882 104.858 326.918 104.732L325.874 103.58C325.604 103.616 325.424 103.634 324.776 103.652L320.438 103.688C320.006 103.706 319.988 103.706 319.772 103.742C319.952 103.436 320.15 103.094 320.33 102.752C320.528 102.32 320.654 102.068 320.69 101.996C320.78 101.834 320.816 101.762 320.96 101.546L319.538 101.15ZM325.802 101.726C326.378 102.32 327.188 103.562 327.638 104.498L328.538 103.958C327.98 102.878 327.584 102.284 326.702 101.24L325.802 101.726ZM327.836 100.736C328.592 101.6 329.258 102.59 329.672 103.49L330.572 102.968C329.942 101.798 329.618 101.33 328.718 100.232L327.836 100.736ZM342.734 101.708C342.23 102.554 340.97 103.814 339.296 105.11C336.452 107.342 333.338 108.89 329.954 109.772C330.314 110.222 330.404 110.402 330.656 110.978C333.95 109.862 335.264 109.268 337.604 107.828V114.668C337.604 115.658 337.586 116.072 337.496 116.54H339.062C338.99 116.054 338.972 115.658 338.972 114.632V106.964C340.52 105.848 342.05 104.534 343.184 103.346C343.634 102.86 343.652 102.824 343.976 102.59L342.734 101.708ZM355.405 105.146H358.879C359.851 105.146 360.355 105.164 360.967 105.236V103.85C360.337 103.94 359.905 103.958 358.861 103.958H350.959C349.915 103.958 349.483 103.94 348.853 103.85V105.236C349.465 105.164 349.969 105.146 350.941 105.146H354.073V113.12H349.573C348.511 113.12 348.133 113.102 347.485 113.012V114.416C348.097 114.344 348.619 114.326 349.555 114.326H360.247C361.201 114.326 361.723 114.344 362.335 114.416V113.012C361.687 113.102 361.309 113.12 360.229 113.12H355.405V105.146ZM366.74 106.496C367.496 107.738 368 108.944 368.432 110.528L369.656 110.114C368.99 108.206 368.594 107.36 367.874 106.118L366.74 106.496ZM370.448 105.74C371.222 107.09 371.78 108.404 372.104 109.682L373.292 109.268C372.824 107.828 372.5 107.108 371.546 105.398L370.448 105.74ZM376.694 105.722C376.694 105.776 376.694 105.776 376.694 105.83V105.902C376.694 106.118 376.622 106.532 376.496 107.126C376.172 108.512 375.65 109.862 374.966 110.996C373.724 113.066 372.032 114.452 369.26 115.694C369.674 116.072 369.818 116.252 370.088 116.702C372.878 115.352 374.768 113.696 376.046 111.5C376.694 110.384 377.342 108.728 377.63 107.468C377.918 106.298 377.918 106.298 378.026 106.01L376.694 105.722ZM388.25 116.558C388.178 116.054 388.16 115.658 388.16 114.65V109.232C388.16 108.782 388.142 108.53 388.088 108.17L388.124 108.152C388.286 108.278 388.412 108.35 388.682 108.458C391.22 109.502 393.704 110.834 395.396 112.022L396.17 110.69C393.02 108.872 390.932 107.882 388.16 106.892V103.526C388.16 102.5 388.178 102.122 388.25 101.654H386.702C386.774 102.104 386.81 102.536 386.81 103.49V114.668C386.81 115.64 386.774 116.072 386.702 116.558H388.25Z" fill="white"/>
<path d="M270.58 46V30H275.986C277.236 30 278.262 30.2135 279.064 30.6406C279.866 31.0625 280.46 31.6432 280.846 32.3828C281.231 33.1224 281.424 33.9635 281.424 34.9062C281.424 35.849 281.231 36.6849 280.846 37.4141C280.46 38.1432 279.869 38.7161 279.072 39.1328C278.275 39.5443 277.257 39.75 276.017 39.75H271.642V38H275.955C276.809 38 277.497 37.875 278.017 37.625C278.543 37.375 278.924 37.0208 279.158 36.5625C279.398 36.099 279.517 35.5469 279.517 34.9062C279.517 34.2656 279.398 33.7057 279.158 33.2266C278.918 32.7474 278.536 32.3776 278.01 32.1172C277.484 31.8516 276.788 31.7187 275.924 31.7187H272.517V46H270.58ZM278.111 38.8125L282.049 46H279.799L275.924 38.8125H278.111ZM284.762 46V30H294.418V31.7187H286.7V37.125H293.918V38.8437H286.7V44.2812H294.543V46H284.762ZM310.896 35H308.958C308.844 34.4427 308.643 33.9531 308.357 33.5312C308.075 33.1094 307.732 32.7552 307.325 32.4688C306.924 32.1771 306.479 31.9583 305.989 31.8125C305.5 31.6667 304.989 31.5937 304.458 31.5937C303.489 31.5937 302.612 31.8385 301.825 32.3281C301.044 32.8177 300.422 33.5391 299.958 34.4922C299.5 35.4453 299.271 36.6146 299.271 38C299.271 39.3854 299.5 40.5547 299.958 41.5078C300.422 42.4609 301.044 43.1823 301.825 43.6719C302.612 44.1615 303.489 44.4062 304.458 44.4062C304.989 44.4062 305.5 44.3333 305.989 44.1875C306.479 44.0417 306.924 43.8255 307.325 43.5391C307.732 43.2474 308.075 42.8906 308.357 42.4687C308.643 42.0417 308.844 41.5521 308.958 41H310.896C310.75 41.8177 310.484 42.5495 310.099 43.1953C309.713 43.8411 309.234 44.3906 308.661 44.8437C308.088 45.2917 307.445 45.6328 306.732 45.8672C306.023 46.1016 305.265 46.2187 304.458 46.2187C303.094 46.2187 301.88 45.8854 300.817 45.2188C299.755 44.5521 298.919 43.6042 298.31 42.375C297.7 41.1458 297.396 39.6875 297.396 38C297.396 36.3125 297.7 34.8542 298.31 33.625C298.919 32.3958 299.755 31.4479 300.817 30.7812C301.88 30.1146 303.094 29.7812 304.458 29.7812C305.265 29.7812 306.023 29.8984 306.732 30.1328C307.445 30.3672 308.088 30.7109 308.661 31.1641C309.234 31.612 309.713 32.1589 310.099 32.8047C310.484 33.4453 310.75 34.1771 310.896 35ZM327.636 38C327.636 39.6875 327.332 41.1458 326.722 42.375C326.113 43.6042 325.277 44.5521 324.215 45.2188C323.152 45.8854 321.939 46.2187 320.574 46.2187C319.209 46.2187 317.996 45.8854 316.933 45.2188C315.871 44.5521 315.035 43.6042 314.426 42.375C313.816 41.1458 313.511 39.6875 313.511 38C313.511 36.3125 313.816 34.8542 314.426 33.625C315.035 32.3958 315.871 31.4479 316.933 30.7812C317.996 30.1146 319.209 29.7812 320.574 29.7812C321.939 29.7812 323.152 30.1146 324.215 30.7812C325.277 31.4479 326.113 32.3958 326.722 33.625C327.332 34.8542 327.636 36.3125 327.636 38ZM325.761 38C325.761 36.6146 325.53 35.4453 325.066 34.4922C324.608 33.5391 323.985 32.8177 323.199 32.3281C322.418 31.8385 321.543 31.5937 320.574 31.5937C319.605 31.5937 318.728 31.8385 317.941 32.3281C317.16 32.8177 316.537 33.5391 316.074 34.4922C315.616 35.4453 315.386 36.6146 315.386 38C315.386 39.3854 315.616 40.5547 316.074 41.5078C316.537 42.4609 317.16 43.1823 317.941 43.6719C318.728 44.1615 319.605 44.4062 320.574 44.4062C321.543 44.4062 322.418 44.1615 323.199 43.6719C323.985 43.1823 324.608 42.4609 325.066 41.5078C325.53 40.5547 325.761 39.3854 325.761 38ZM331.004 30H333.317L338.754 43.2812H338.942L344.379 30H346.692V46H344.879V33.8438H344.723L339.723 46H337.973L332.973 33.8438H332.817V46H331.004V30ZM350.687 30H352.999L358.437 43.2812H358.624L364.062 30H366.374V46H364.562V33.8438H364.405L359.405 46H357.655L352.655 33.8438H352.499V46H350.687V30ZM370.369 46V30H380.025V31.7187H372.306V37.125H379.525V38.8437H372.306V44.2812H380.15V46H370.369ZM396.315 30V46H394.44L385.721 33.4375H385.565V46H383.627V30H385.502L394.252 42.5937H394.408V30H396.315ZM405.239 46H400.302V30H405.458C407.01 30 408.338 30.3203 409.442 30.9609C410.546 31.5964 411.393 32.5104 411.981 33.7031C412.57 34.8906 412.864 36.3125 412.864 37.9687C412.864 39.6354 412.567 41.0703 411.974 42.2734C411.38 43.4714 410.515 44.3932 409.38 45.0391C408.244 45.6797 406.864 46 405.239 46ZM402.239 44.2812H405.114C406.437 44.2812 407.533 44.026 408.403 43.5156C409.273 43.0052 409.921 42.2786 410.349 41.3359C410.776 40.3932 410.989 39.2708 410.989 37.9687C410.989 36.6771 410.778 35.5651 410.356 34.6328C409.934 33.6953 409.304 32.9766 408.466 32.4766C407.627 31.9714 406.583 31.7187 405.333 31.7187H402.239V44.2812ZM416.224 46V30H425.88V31.7187H418.162V37.125H425.38V38.8437H418.162V44.2812H426.005V46H416.224ZM434.42 46H429.483V30H434.639C436.191 30 437.519 30.3203 438.623 30.9609C439.727 31.5964 440.574 32.5104 441.162 33.7031C441.751 34.8906 442.045 36.3125 442.045 37.9687C442.045 39.6354 441.748 41.0703 441.154 42.2734C440.561 43.4714 439.696 44.3932 438.561 45.0391C437.425 45.6797 436.045 46 434.42 46ZM431.42 44.2812H434.295C435.618 44.2812 436.714 44.026 437.584 43.5156C438.454 43.0052 439.102 42.2786 439.529 41.3359C439.957 40.3932 440.17 39.2708 440.17 37.9687C440.17 36.6771 439.959 35.5651 439.537 34.6328C439.115 33.6953 438.485 32.9766 437.647 32.4766C436.808 31.9714 435.764 31.7187 434.514 31.7187H431.42V44.2812ZM338.261 73H333.323V57H338.48C340.032 57 341.36 57.3203 342.464 57.9609C343.568 58.5964 344.414 59.5104 345.003 60.7031C345.592 61.8906 345.886 63.3125 345.886 64.9687C345.886 66.6354 345.589 68.0703 344.995 69.2734C344.401 70.4714 343.537 71.3932 342.401 72.0391C341.266 72.6797 339.886 73 338.261 73ZM335.261 71.2812H338.136C339.459 71.2812 340.555 71.026 341.425 70.5156C342.295 70.0052 342.943 69.2786 343.37 68.3359C343.797 67.3932 344.011 66.2708 344.011 64.9687C344.011 63.6771 343.8 62.5651 343.378 61.6328C342.956 60.6953 342.326 59.9766 341.487 59.4766C340.649 58.9714 339.605 58.7187 338.355 58.7187H335.261V71.2812ZM351.183 57V73H349.246V57H351.183ZM355.178 73V57H364.834V58.7187H357.116V64.125H364.334V65.8437H357.116V71.2812H364.959V73H355.178ZM367.561 58.7187V57H379.561V58.7187H374.53V73H372.593V58.7187H367.561Z" fill="#FFCC21"/>
<path d="M328 88H384H328Z" fill="black" fill-opacity="0.01"/>
<path d="M328 88H384" stroke="white"/>
<path d="M496 0H629.313H712V144H496L496 0Z" fill="#2E2E2E"/>
<path d="M600.67 112.22C601.426 112.22 601.984 112.256 602.524 112.328V111.122C602.038 111.194 601.498 111.23 600.724 111.23H595.216C595.306 110.78 595.342 110.6 595.378 110.24C595.396 110.024 595.396 109.988 595.432 109.808L594.136 109.79C594.154 109.988 594.172 110.06 594.172 110.222C594.172 110.546 594.136 110.816 594.064 111.23H589.294C588.538 111.23 588.016 111.194 587.494 111.122V112.328C588.016 112.256 588.61 112.22 589.33 112.22H593.74C593.308 113.174 592.714 113.84 591.742 114.506C590.518 115.334 589.168 115.802 587.098 116.126C587.386 116.558 587.53 116.846 587.656 117.278C589.78 116.792 590.914 116.378 592.12 115.604C593.38 114.794 594.316 113.714 594.838 112.49C595.45 113.606 596.332 114.578 597.484 115.37C598.816 116.27 600.238 116.846 602.362 117.314C602.47 116.882 602.632 116.54 602.92 116.09C601.264 115.892 599.896 115.478 598.672 114.794C597.43 114.11 596.494 113.264 595.846 112.22H600.67ZM589.798 103.166C589.024 103.166 588.538 103.13 587.998 103.058V104.246C588.52 104.174 589.042 104.138 589.798 104.138H594.334V105.758H590.374C589.654 105.758 589.294 105.74 588.826 105.668V106.82C589.276 106.748 589.672 106.73 590.374 106.73H594.334V108.476H589.042C588.268 108.476 587.728 108.44 587.242 108.368V109.574C587.746 109.502 588.322 109.466 589.042 109.466H600.94C601.678 109.466 602.236 109.484 602.74 109.556V108.368C602.236 108.44 601.714 108.476 600.94 108.476H595.45V106.73H599.608C600.31 106.73 600.706 106.748 601.156 106.82V105.668C600.67 105.74 600.328 105.758 599.608 105.758H595.45V104.138H600.184C600.922 104.138 601.498 104.174 601.984 104.246V103.058C601.48 103.13 600.958 103.166 600.184 103.166H597.484C598.006 102.572 598.348 102.104 598.762 101.474L597.646 101.06C597.268 101.852 596.8 102.554 596.26 103.166H593.56C593.146 102.428 592.732 101.852 592.03 100.988L591.022 101.456C591.526 101.978 591.868 102.428 592.336 103.166H589.798ZM612.226 102.572H607.366C606.646 102.572 606.106 102.554 605.548 102.5C605.602 102.878 605.62 103.238 605.62 103.724V104.876C605.62 105.398 605.602 105.704 605.548 106.118H606.736V103.616H619.372V106.118H620.542C620.488 105.74 620.47 105.398 620.47 104.876V103.724C620.47 103.238 620.488 102.878 620.542 102.5C619.966 102.554 619.444 102.572 618.742 102.572H613.396V102.014C613.396 101.6 613.414 101.312 613.504 100.898H612.1C612.19 101.294 612.226 101.618 612.226 102.014V102.572ZM608.122 115.766C608.122 116.324 608.086 116.864 608.014 117.386H609.256V116.486H616.816V117.386H618.04C617.968 116.882 617.932 116.36 617.932 115.784V111.716C618.724 112.238 619.372 112.616 620.506 113.21C620.704 112.742 620.884 112.454 621.172 112.112C619.39 111.374 618.346 110.78 617.068 109.826C615.484 108.638 614.476 107.612 613.63 106.316H612.478C611.686 107.558 610.822 108.476 609.364 109.628C607.978 110.708 606.682 111.464 604.99 112.166C605.278 112.454 605.458 112.724 605.674 113.174C606.898 112.526 607.33 112.274 607.762 111.968C607.996 111.806 607.996 111.806 608.122 111.716V115.766ZM609.202 110.96C610.138 110.294 610.192 110.258 610.822 109.7C611.794 108.836 612.28 108.314 613.09 107.27C614.314 108.89 615.052 109.61 616.852 110.96H609.202ZM609.256 112.004H616.816V115.442H609.256V112.004ZM610.21 104.444C609.346 105.524 608.86 106.028 607.996 106.694C607.258 107.252 606.772 107.54 605.872 107.936C606.304 108.278 606.466 108.44 606.736 108.836C607.708 108.296 608.212 107.936 608.986 107.27C609.85 106.55 610.318 106.046 611.182 104.984L610.21 104.444ZM614.728 105.038C616.474 106.946 617.374 107.63 619.606 108.8C619.858 108.35 619.966 108.17 620.29 107.81C618.13 106.838 617.158 106.118 615.646 104.408L614.728 105.038Z" fill="white"/>
<path d="M518.58 46V30H523.986C525.236 30 526.262 30.2135 527.064 30.6406C527.866 31.0625 528.46 31.6432 528.846 32.3828C529.231 33.1224 529.424 33.9635 529.424 34.9062C529.424 35.849 529.231 36.6849 528.846 37.4141C528.46 38.1432 527.869 38.7161 527.072 39.1328C526.275 39.5443 525.257 39.75 524.017 39.75H519.642V38H523.955C524.809 38 525.497 37.875 526.017 37.625C526.543 37.375 526.924 37.0208 527.158 36.5625C527.398 36.099 527.517 35.5469 527.517 34.9062C527.517 34.2656 527.398 33.7057 527.158 33.2266C526.918 32.7474 526.536 32.3776 526.01 32.1172C525.484 31.8516 524.788 31.7187 523.924 31.7187H520.517V46H518.58ZM526.111 38.8125L530.049 46H527.799L523.924 38.8125H526.111ZM532.762 46V30H542.418V31.7187H534.7V37.125H541.918V38.8437H534.7V44.2812H542.543V46H532.762ZM558.896 35H556.958C556.844 34.4427 556.643 33.9531 556.357 33.5312C556.075 33.1094 555.732 32.7552 555.325 32.4688C554.924 32.1771 554.479 31.9583 553.989 31.8125C553.5 31.6667 552.989 31.5937 552.458 31.5937C551.489 31.5937 550.612 31.8385 549.825 32.3281C549.044 32.8177 548.422 33.5391 547.958 34.4922C547.5 35.4453 547.271 36.6146 547.271 38C547.271 39.3854 547.5 40.5547 547.958 41.5078C548.422 42.4609 549.044 43.1823 549.825 43.6719C550.612 44.1615 551.489 44.4062 552.458 44.4062C552.989 44.4062 553.5 44.3333 553.989 44.1875C554.479 44.0417 554.924 43.8255 555.325 43.5391C555.732 43.2474 556.075 42.8906 556.357 42.4687C556.643 42.0417 556.844 41.5521 556.958 41H558.896C558.75 41.8177 558.484 42.5495 558.099 43.1953C557.713 43.8411 557.234 44.3906 556.661 44.8437C556.088 45.2917 555.445 45.6328 554.732 45.8672C554.023 46.1016 553.265 46.2187 552.458 46.2187C551.094 46.2187 549.88 45.8854 548.817 45.2188C547.755 44.5521 546.919 43.6042 546.31 42.375C545.7 41.1458 545.396 39.6875 545.396 38C545.396 36.3125 545.7 34.8542 546.31 33.625C546.919 32.3958 547.755 31.4479 548.817 30.7812C549.88 30.1146 551.094 29.7812 552.458 29.7812C553.265 29.7812 554.023 29.8984 554.732 30.1328C555.445 30.3672 556.088 30.7109 556.661 31.1641C557.234 31.612 557.713 32.1589 558.099 32.8047C558.484 33.4453 558.75 34.1771 558.896 35ZM575.636 38C575.636 39.6875 575.332 41.1458 574.722 42.375C574.113 43.6042 573.277 44.5521 572.215 45.2188C571.152 45.8854 569.939 46.2187 568.574 46.2187C567.209 46.2187 565.996 45.8854 564.933 45.2188C563.871 44.5521 563.035 43.6042 562.426 42.375C561.816 41.1458 561.511 39.6875 561.511 38C561.511 36.3125 561.816 34.8542 562.426 33.625C563.035 32.3958 563.871 31.4479 564.933 30.7812C565.996 30.1146 567.209 29.7812 568.574 29.7812C569.939 29.7812 571.152 30.1146 572.215 30.7812C573.277 31.4479 574.113 32.3958 574.722 33.625C575.332 34.8542 575.636 36.3125 575.636 38ZM573.761 38C573.761 36.6146 573.53 35.4453 573.066 34.4922C572.608 33.5391 571.985 32.8177 571.199 32.3281C570.418 31.8385 569.543 31.5937 568.574 31.5937C567.605 31.5937 566.728 31.8385 565.941 32.3281C565.16 32.8177 564.537 33.5391 564.074 34.4922C563.616 35.4453 563.386 36.6146 563.386 38C563.386 39.3854 563.616 40.5547 564.074 41.5078C564.537 42.4609 565.16 43.1823 565.941 43.6719C566.728 44.1615 567.605 44.4062 568.574 44.4062C569.543 44.4062 570.418 44.1615 571.199 43.6719C571.985 43.1823 572.608 42.4609 573.066 41.5078C573.53 40.5547 573.761 39.3854 573.761 38ZM579.004 30H581.317L586.754 43.2812H586.942L592.379 30H594.692V46H592.879V33.8438H592.723L587.723 46H585.973L580.973 33.8438H580.817V46H579.004V30ZM598.687 30H600.999L606.437 43.2812H606.624L612.062 30H614.374V46H612.562V33.8438H612.405L607.405 46H605.655L600.655 33.8438H600.499V46H598.687V30ZM618.369 46V30H628.025V31.7187H620.306V37.125H627.525V38.8437H620.306V44.2812H628.15V46H618.369ZM644.315 30V46H642.44L633.721 33.4375H633.565V46H631.627V30H633.502L642.252 42.5937H642.408V30H644.315ZM653.239 46H648.302V30H653.458C655.01 30 656.338 30.3203 657.442 30.9609C658.546 31.5964 659.393 32.5104 659.981 33.7031C660.57 34.8906 660.864 36.3125 660.864 37.9687C660.864 39.6354 660.567 41.0703 659.974 42.2734C659.38 43.4714 658.515 44.3932 657.38 45.0391C656.244 45.6797 654.864 46 653.239 46ZM650.239 44.2812H653.114C654.437 44.2812 655.533 44.026 656.403 43.5156C657.273 43.0052 657.921 42.2786 658.349 41.3359C658.776 40.3932 658.989 39.2708 658.989 37.9687C658.989 36.6771 658.778 35.5651 658.356 34.6328C657.934 33.6953 657.304 32.9766 656.466 32.4766C655.627 31.9714 654.583 31.7187 653.333 31.7187H650.239V44.2812ZM664.224 46V30H673.88V31.7187H666.162V37.125H673.38V38.8437H666.162V44.2812H674.005V46H664.224ZM682.42 46H677.483V30H682.639C684.191 30 685.519 30.3203 686.623 30.9609C687.727 31.5964 688.574 32.5104 689.162 33.7031C689.751 34.8906 690.045 36.3125 690.045 37.9687C690.045 39.6354 689.748 41.0703 689.154 42.2734C688.561 43.4714 687.696 44.3932 686.561 45.0391C685.425 45.6797 684.045 46 682.42 46ZM679.42 44.2812H682.295C683.618 44.2812 684.714 44.026 685.584 43.5156C686.454 43.0052 687.102 42.2786 687.529 41.3359C687.957 40.3932 688.17 39.2708 688.17 37.9687C688.17 36.6771 687.959 35.5651 687.537 34.6328C687.115 33.6953 686.485 32.9766 685.647 32.4766C684.808 31.9714 683.764 31.7187 682.514 31.7187H679.42V44.2812ZM561.974 73V57H567.568C568.682 57 569.602 57.1927 570.326 57.5781C571.05 57.9583 571.589 58.4714 571.943 59.1172C572.297 59.7578 572.474 60.4687 572.474 61.25C572.474 61.9375 572.352 62.5052 572.107 62.9531C571.867 63.401 571.55 63.7552 571.154 64.0156C570.763 64.276 570.339 64.4687 569.88 64.5937V64.75C570.37 64.7812 570.862 64.9531 571.357 65.2656C571.852 65.5781 572.266 66.026 572.599 66.6094C572.932 67.1927 573.099 67.9062 573.099 68.75C573.099 69.5521 572.917 70.2734 572.552 70.9141C572.188 71.5547 571.612 72.0625 570.826 72.4375C570.039 72.8125 569.016 73 567.755 73H561.974ZM563.912 71.2812H567.755C569.021 71.2812 569.919 71.0365 570.451 70.5469C570.987 70.0521 571.255 69.4531 571.255 68.75C571.255 68.2083 571.117 67.7083 570.841 67.25C570.565 66.7865 570.172 66.4167 569.662 66.1406C569.151 65.8594 568.547 65.7188 567.849 65.7188H563.912V71.2812ZM563.912 64.0312H567.505C568.089 64.0312 568.615 63.9167 569.083 63.6875C569.557 63.4583 569.932 63.1354 570.208 62.7187C570.49 62.3021 570.63 61.8125 570.63 61.25C570.63 60.5469 570.385 59.9505 569.896 59.4609C569.406 58.9661 568.63 58.7187 567.568 58.7187H563.912V64.0312ZM576.393 73V57H586.049V58.7187H578.33V64.125H585.549V65.8437H578.33V71.2812H586.174V73H576.393ZM590.307 73H588.276L594.151 57H596.151L602.026 73H599.995L595.214 59.5312H595.089L590.307 73ZM591.057 66.75H599.245V68.4687H591.057V66.75ZM615.128 57H617.066V67.5937C617.066 68.6875 616.808 69.6641 616.292 70.5234C615.782 71.3776 615.061 72.0521 614.128 72.5469C613.196 73.0365 612.102 73.2813 610.847 73.2813C609.592 73.2813 608.498 73.0365 607.566 72.5469C606.633 72.0521 605.909 71.3776 605.394 70.5234C604.883 69.6641 604.628 68.6875 604.628 67.5937V57H606.566V67.4375C606.566 68.2187 606.738 68.9141 607.081 69.5234C607.425 70.1276 607.915 70.6042 608.55 70.9531C609.191 71.2969 609.956 71.4687 610.847 71.4687C611.738 71.4687 612.503 71.2969 613.144 70.9531C613.784 70.6042 614.274 70.1276 614.613 69.5234C614.956 68.9141 615.128 68.2187 615.128 67.4375V57ZM620.17 58.7187V57H632.17V58.7187H627.139V73H625.201V58.7187H620.17ZM633.895 57H636.114L640.551 64.4687H640.739L645.176 57H647.395L641.614 66.4063V73H639.676V66.4063L633.895 57Z" fill="#FFCC21"/>
<path d="M576 88H632H576Z" fill="black" fill-opacity="0.01"/>
<path d="M576 88H632" stroke="white"/>
<path d="M744 0H877.313H960V144H744L744 0Z" fill="#2E2E2E"/>
<path d="M845.556 105.11H844.026C843.144 105.11 842.694 105.092 842.28 105.02V106.118C842.694 106.046 843.108 106.028 843.864 106.028H845.556V107.666H844.278C843.702 107.666 843.36 107.648 842.946 107.594V108.62C843.36 108.566 843.72 108.548 844.26 108.548H845.556V109.988H844.188C843.432 109.988 843 109.97 842.622 109.898V110.978C843 110.906 843.486 110.888 844.188 110.888H845.556V112.418H843.504C842.838 112.418 842.352 112.4 841.83 112.328V113.444C842.28 113.372 842.712 113.354 843.486 113.354H845.556V113.714C845.556 114.29 845.52 114.614 845.466 115.028H846.654C846.582 114.542 846.564 114.2 846.564 113.696V113.354H849.264C850.038 113.354 850.506 113.372 851.028 113.426V112.328C850.542 112.382 850.002 112.418 849.264 112.418H846.564V110.888H848.616C849.228 110.888 849.75 110.924 850.308 110.978V109.898C849.84 109.97 849.426 109.988 848.634 109.988H846.564V108.548H848.652C849.192 108.548 849.642 108.566 850.02 108.584C849.984 108.242 849.984 107.99 849.984 107.486V106.028H850.164C850.542 106.028 850.866 106.046 851.37 106.118V105.02C850.992 105.092 850.704 105.11 850.164 105.11H849.984V103.814C849.984 103.094 849.984 102.986 850.02 102.608C849.732 102.644 849.336 102.662 848.67 102.662H846.564V102.5C846.564 101.924 846.582 101.6 846.636 101.186H845.466C845.52 101.6 845.556 101.942 845.556 102.5V102.662H844.422C843.774 102.662 843.45 102.644 843.054 102.572V103.652C843.486 103.598 843.828 103.58 844.422 103.58H845.556V105.11ZM846.564 105.11V103.58H848.958V105.11H846.564ZM846.564 106.028H848.958V107.666H846.564V106.028ZM838.302 109.808C839.166 112.04 839.328 112.382 839.976 113.372C839.472 114.524 838.806 115.478 837.852 116.378C838.392 116.864 838.392 116.864 838.626 117.242C839.634 116.072 840.102 115.388 840.66 114.254C841.506 115.172 842.298 115.676 843.504 116.09C844.854 116.558 846.438 116.756 848.742 116.756C849.444 116.756 849.948 116.738 851.136 116.684C851.172 116.27 851.244 116.018 851.478 115.514C849.984 115.658 849.066 115.712 848.094 115.712C844.494 115.712 842.55 115.028 841.074 113.264C841.596 111.824 841.992 110.114 842.226 108.242C842.298 107.756 842.298 107.756 842.352 107.306C842.01 107.36 841.65 107.378 840.696 107.378H839.94C840.768 106.118 841.65 104.516 842.082 103.418C842.208 103.13 842.244 103.058 842.316 102.932L841.794 102.374C841.542 102.41 841.344 102.428 840.84 102.428H839.922C839.49 102.428 839.13 102.41 838.86 102.374V103.472C839.148 103.418 839.49 103.382 839.868 103.382H841.002C840.3 105.092 839.436 106.586 838.194 108.314C838.68 108.278 838.95 108.278 839.49 108.278H841.236C840.966 110.204 840.786 111.086 840.408 112.256C839.76 111.068 839.526 110.438 839.346 109.376L838.302 109.808ZM836.466 115.064C836.466 116.036 836.43 116.666 836.358 117.278H837.6C837.546 116.684 837.528 116.108 837.528 115.046V105.362C837.996 104.246 838.41 103.13 838.698 102.104C838.806 101.708 838.824 101.654 838.986 101.24L837.834 100.916C837.762 101.528 837.456 102.644 837.078 103.688C836.268 105.902 835.494 107.36 834.288 108.926C834.378 109.034 834.378 109.034 834.486 109.196C834.684 109.412 834.684 109.412 834.846 109.718C834.864 109.772 834.918 109.844 834.972 109.934C835.584 109.088 835.962 108.458 836.52 107.27C836.484 108.134 836.466 108.962 836.466 110.006V115.064ZM861.288 107.18H855.492C855.51 106.082 855.528 105.344 855.528 103.472H867.264C867.93 103.472 868.398 103.49 868.974 103.562V102.392C868.542 102.464 868.002 102.5 867.102 102.5H862.062V102.068C862.062 101.492 862.08 101.204 862.152 100.88H860.82C860.892 101.24 860.928 101.51 860.928 102.05V102.5H856.356C855.384 102.5 854.862 102.482 854.34 102.41C854.394 102.932 854.412 103.382 854.412 104.444C854.412 108.116 854.196 111.23 853.8 113.192C853.566 114.38 853.296 115.154 852.666 116.396C853.116 116.702 853.278 116.846 853.62 117.242C854.808 114.83 855.276 112.544 855.456 108.116H861.288V109.556H857.976C857.346 109.556 856.968 109.538 856.572 109.466V110.564C856.968 110.492 857.382 110.474 858.012 110.474H861.288V112.832C859.236 113.84 858.462 114.146 856.842 114.668C855.978 114.938 855.798 114.992 855.366 115.064L855.924 116.198C856.14 116.108 856.32 116.018 856.608 115.91C858.66 115.136 858.912 115.028 861.288 113.858V115.676C861.288 116.054 861.18 116.108 860.55 116.108C859.938 116.108 859.344 116.036 858.642 115.892C858.804 116.342 858.858 116.63 858.894 117.116C859.56 117.17 860.082 117.188 860.55 117.188C861.954 117.188 862.314 116.918 862.314 115.838V113.012C862.314 112.67 862.278 111.698 862.224 111.194C862.962 112.598 863.628 113.534 864.492 114.362C865.608 115.46 866.472 116.036 868.344 117.026C868.668 116.54 868.884 116.306 869.154 116.036C867.444 115.316 866.364 114.65 865.194 113.606C866.31 112.868 867.012 112.31 868.182 111.212L867.228 110.528C866.49 111.446 865.842 112.022 864.492 112.922C863.718 112.094 863.25 111.428 862.746 110.474H865.932C866.364 110.474 866.364 110.474 867.246 110.51C867.21 110.132 867.21 110.024 867.21 109.25V108.116H867.732C868.272 108.116 868.704 108.134 869.154 108.206V107.09C868.812 107.162 868.47 107.18 867.75 107.18H867.21V106.1C867.21 105.578 867.21 105.2 867.264 104.858C866.76 104.912 866.418 104.93 865.716 104.93H862.332C862.332 104.408 862.35 104.156 862.404 103.886H861.198C861.252 104.192 861.27 104.372 861.288 104.93H858.156C857.472 104.93 857.13 104.912 856.734 104.84V105.938C857.166 105.866 857.58 105.848 858.156 105.848H861.288V107.18ZM866.166 108.116V109.556H862.332V108.116H866.166ZM866.166 107.18H862.332V105.848H866.166V107.18ZM856.716 111.482C857.742 112.076 858.264 112.472 859.218 113.408L859.956 112.706C859.038 111.86 858.462 111.41 857.49 110.834L856.716 111.482Z" fill="white"/>
<path d="M766.58 46V30H771.986C773.236 30 774.262 30.2135 775.064 30.6406C775.866 31.0625 776.46 31.6432 776.846 32.3828C777.231 33.1224 777.424 33.9635 777.424 34.9062C777.424 35.849 777.231 36.6849 776.846 37.4141C776.46 38.1432 775.869 38.7161 775.072 39.1328C774.275 39.5443 773.257 39.75 772.017 39.75H767.642V38H771.955C772.809 38 773.497 37.875 774.017 37.625C774.543 37.375 774.924 37.0208 775.158 36.5625C775.398 36.099 775.517 35.5469 775.517 34.9062C775.517 34.2656 775.398 33.7057 775.158 33.2266C774.918 32.7474 774.536 32.3776 774.01 32.1172C773.484 31.8516 772.788 31.7187 771.924 31.7187H768.517V46H766.58ZM774.111 38.8125L778.049 46H775.799L771.924 38.8125H774.111ZM780.762 46V30H790.418V31.7187H782.7V37.125H789.918V38.8437H782.7V44.2812H790.543V46H780.762ZM806.896 35H804.958C804.844 34.4427 804.643 33.9531 804.357 33.5312C804.075 33.1094 803.732 32.7552 803.325 32.4688C802.924 32.1771 802.479 31.9583 801.989 31.8125C801.5 31.6667 800.989 31.5937 800.458 31.5937C799.489 31.5937 798.612 31.8385 797.825 32.3281C797.044 32.8177 796.422 33.5391 795.958 34.4922C795.5 35.4453 795.271 36.6146 795.271 38C795.271 39.3854 795.5 40.5547 795.958 41.5078C796.422 42.4609 797.044 43.1823 797.825 43.6719C798.612 44.1615 799.489 44.4062 800.458 44.4062C800.989 44.4062 801.5 44.3333 801.989 44.1875C802.479 44.0417 802.924 43.8255 803.325 43.5391C803.732 43.2474 804.075 42.8906 804.357 42.4687C804.643 42.0417 804.844 41.5521 804.958 41H806.896C806.75 41.8177 806.484 42.5495 806.099 43.1953C805.713 43.8411 805.234 44.3906 804.661 44.8437C804.088 45.2917 803.445 45.6328 802.732 45.8672C802.023 46.1016 801.265 46.2187 800.458 46.2187C799.094 46.2187 797.88 45.8854 796.817 45.2188C795.755 44.5521 794.919 43.6042 794.31 42.375C793.7 41.1458 793.396 39.6875 793.396 38C793.396 36.3125 793.7 34.8542 794.31 33.625C794.919 32.3958 795.755 31.4479 796.817 30.7812C797.88 30.1146 799.094 29.7812 800.458 29.7812C801.265 29.7812 802.023 29.8984 802.732 30.1328C803.445 30.3672 804.088 30.7109 804.661 31.1641C805.234 31.612 805.713 32.1589 806.099 32.8047C806.484 33.4453 806.75 34.1771 806.896 35ZM823.636 38C823.636 39.6875 823.332 41.1458 822.722 42.375C822.113 43.6042 821.277 44.5521 820.215 45.2188C819.152 45.8854 817.939 46.2187 816.574 46.2187C815.209 46.2187 813.996 45.8854 812.933 45.2188C811.871 44.5521 811.035 43.6042 810.426 42.375C809.816 41.1458 809.511 39.6875 809.511 38C809.511 36.3125 809.816 34.8542 810.426 33.625C811.035 32.3958 811.871 31.4479 812.933 30.7812C813.996 30.1146 815.209 29.7812 816.574 29.7812C817.939 29.7812 819.152 30.1146 820.215 30.7812C821.277 31.4479 822.113 32.3958 822.722 33.625C823.332 34.8542 823.636 36.3125 823.636 38ZM821.761 38C821.761 36.6146 821.53 35.4453 821.066 34.4922C820.608 33.5391 819.985 32.8177 819.199 32.3281C818.418 31.8385 817.543 31.5937 816.574 31.5937C815.605 31.5937 814.728 31.8385 813.941 32.3281C813.16 32.8177 812.537 33.5391 812.074 34.4922C811.616 35.4453 811.386 36.6146 811.386 38C811.386 39.3854 811.616 40.5547 812.074 41.5078C812.537 42.4609 813.16 43.1823 813.941 43.6719C814.728 44.1615 815.605 44.4062 816.574 44.4062C817.543 44.4062 818.418 44.1615 819.199 43.6719C819.985 43.1823 820.608 42.4609 821.066 41.5078C821.53 40.5547 821.761 39.3854 821.761 38ZM827.004 30H829.317L834.754 43.2812H834.942L840.379 30H842.692V46H840.879V33.8438H840.723L835.723 46H833.973L828.973 33.8438H828.817V46H827.004V30ZM846.687 30H848.999L854.437 43.2812H854.624L860.062 30H862.374V46H860.562V33.8438H860.405L855.405 46H853.655L848.655 33.8438H848.499V46H846.687V30ZM866.369 46V30H876.025V31.7187H868.306V37.125H875.525V38.8437H868.306V44.2812H876.15V46H866.369ZM892.315 30V46H890.44L881.721 33.4375H881.565V46H879.627V30H881.502L890.252 42.5937H890.408V30H892.315ZM901.239 46H896.302V30H901.458C903.01 30 904.338 30.3203 905.442 30.9609C906.546 31.5964 907.393 32.5104 907.981 33.7031C908.57 34.8906 908.864 36.3125 908.864 37.9687C908.864 39.6354 908.567 41.0703 907.974 42.2734C907.38 43.4714 906.515 44.3932 905.38 45.0391C904.244 45.6797 902.864 46 901.239 46ZM898.239 44.2812H901.114C902.437 44.2812 903.533 44.026 904.403 43.5156C905.273 43.0052 905.921 42.2786 906.349 41.3359C906.776 40.3932 906.989 39.2708 906.989 37.9687C906.989 36.6771 906.778 35.5651 906.356 34.6328C905.934 33.6953 905.304 32.9766 904.466 32.4766C903.627 31.9714 902.583 31.7187 901.333 31.7187H898.239V44.2812ZM912.224 46V30H921.88V31.7187H914.162V37.125H921.38V38.8437H914.162V44.2812H922.005V46H912.224ZM930.42 46H925.483V30H930.639C932.191 30 933.519 30.3203 934.623 30.9609C935.727 31.5964 936.574 32.5104 937.162 33.7031C937.751 34.8906 938.045 36.3125 938.045 37.9687C938.045 39.6354 937.748 41.0703 937.154 42.2734C936.561 43.4714 935.696 44.3932 934.561 45.0391C933.425 45.6797 932.045 46 930.42 46ZM927.42 44.2812H930.295C931.618 44.2812 932.714 44.026 933.584 43.5156C934.454 43.0052 935.102 42.2786 935.529 41.3359C935.957 40.3932 936.17 39.2708 936.17 37.9687C936.17 36.6771 935.959 35.5651 935.537 34.6328C935.115 33.6953 934.485 32.9766 933.647 32.4766C932.808 31.9714 931.764 31.7187 930.514 31.7187H927.42V44.2812ZM811.188 73V57H813.125V64.125H821.657V57H823.594V73H821.657V65.8437H813.125V73H811.188ZM827.583 73V57H837.239V58.7187H829.521V64.125H836.739V65.8437H829.521V71.2812H837.364V73H827.583ZM841.498 73H839.466L845.341 57H847.341L853.216 73H851.185L846.404 59.5312H846.279L841.498 73ZM842.248 66.75H850.435V68.4687H842.248V66.75ZM855.819 73V57H857.756V71.2812H865.194V73H855.819ZM865.302 58.7187V57H877.302V58.7187H872.27V73H870.333V58.7187H865.302ZM880.402 73V57H882.339V64.125H890.871V57H892.808V73H890.871V65.8437H882.339V73H880.402Z" fill="#FFCC21"/>
<path d="M824 88H880H824Z" fill="black" fill-opacity="0.01"/>
<path d="M824 88H880" stroke="white"/>
</g>
</svg>
